<svg xmlns="http://www.w3.org/2000/svg" width="256" height="256" viewBox="0 0 100 100"><rect width="100" height="100" rx="50" fill="#9eab8e"></rect><path fill="#fff" d="M28.94 25.54L28.94 25.54Q29.34 25.38 30.20 25.17Q31.05 24.97 31.94 24.97L31.94 24.97Q35.50 24.97 35.50 27.97L35.50 27.97L35.50 62.64Q35.50 66.28 34.45 68.75Q33.39 71.22 31.57 72.72Q29.75 74.22 27.36 74.87Q24.97 75.52 22.38 75.52L22.38 75.52Q17.76 75.52 15.66 74.42Q13.55 73.33 13.55 71.55L13.55 71.55Q13.55 70.41 14.04 69.60Q14.52 68.79 14.93 68.39L14.93 68.39Q16.14 68.95 17.84 69.44Q19.54 69.93 21.41 69.93L21.41 69.93Q25.05 69.93 27.00 68.18Q28.94 66.44 28.94 62.31L28.94 62.31L28.94 25.54ZM84.51 37.77L84.51 37.77Q84.51 41.25 82.85 44.21Q81.19 47.16 77.30 48.78L77.30 48.78Q81.91 50.32 84.18 53.60Q86.45 56.88 86.45 61.02L86.45 61.02Q86.45 68.39 81.14 71.95Q75.84 75.52 66.04 75.52L66.04 75.52Q62.64 75.52 59.44 75.23Q56.24 74.95 53.32 74.14L53.32 74.14Q49.92 73.17 49.92 70.41L49.92 70.41L49.92 28.94Q49.92 26.59 52.59 25.86L52.59 25.86Q55.35 25.05 58.42 24.77Q61.50 24.48 65.15 24.48L65.15 24.48Q74.30 24.48 79.40 27.72Q84.51 30.96 84.51 37.77ZM67.42 51.70L56.40 51.70L56.40 69.20Q58.34 69.60 60.89 69.84Q63.45 70.09 66.04 70.09L66.04 70.09Q72.76 70.09 76.24 67.86Q79.73 65.63 79.73 60.85L79.73 60.85Q79.73 56.64 76.61 54.17Q73.49 51.70 67.42 51.70L67.42 51.70ZM56.40 30.64L56.40 46.35L67.42 46.35Q72.52 46.35 75.15 44.09Q77.78 41.82 77.78 37.93L77.78 37.93Q77.78 29.91 65.15 29.91L65.15 29.91Q62.31 29.91 60.25 30.11Q58.18 30.32 56.40 30.64L56.40 30.64Z"></path></svg>