<?xml version="1.0" encoding="UTF-8"?><svg id="Layer_1" xmlns="http://www.w3.org/2000/svg" xmlns:xlink="http://www.w3.org/1999/xlink" viewBox="0 0 540 425"><defs><style>.cls-1{fill:#ff8797;}.cls-2{fill:#a70004;}.cls-3{fill:#40a1c2;}.cls-4{filter:url(#AI_BevelShadow_1);opacity:.6;}</style><filter id="AI_BevelShadow_1" x="-20%" y="-20%" width="140%" height="140%"><feGaussianBlur in="SourceAlpha" result="blur" stdDeviation="4"/><feOffset dx="4" dy="4" in="blur" result="offsetBlur"/><feSpecularLighting in="blur" result="specOut" specularConstant="1" specularExponent="10" surfaceScale="5"><fePointLight x="-5000" y="-10000" z="-20000"/></feSpecularLighting><feComposite in="specOut" in2="SourceAlpha" operator="in" result="specOut"/><feComposite in="SourceGraphic" in2="specOut" k1="0" k2="1" k3="1" k4="0" operator="arithmetic" result="litPaint"/><feMerge><feMergeNode in="offsetBlur"/><feMergeNode in="litPaint"/></feMerge></filter></defs><g class="cls-4"><g><path class="cls-3" d="M129.45,77.59c-3.49,17.46-22.43,19.52-36.08,12.3-.05,.13-.08,.25-.13,.38-1.36,3.44-11.91,3.23-10.39-.62,.81-2.06,1.48-4.13,2.12-6.22-.7-.79-1.38-1.59-1.98-2.45-1.2-1.74,.91-3.1,3.55-3.61,1.31-5.85,2.1-11.79,2.38-17.85,.18-3.98,10.8-4.51,10.63-.88-.36,7.94-1.44,15.77-3.57,23.39,5.24,5.2,13.79,9.61,19.64,3.45,4.96-5.23,4.35-14.88,2.89-21.3-2.2-9.67-9.78-23.05-20.15-28.61,.57,4.05,.9,8.13,1.12,12.18,.2,3.89-10.43,4.65-10.63,.88-.31-5.92-.83-11.92-2.08-17.74-.29-1.37,1.05-2.38,2.86-2.9,1-.4,2.2-.61,3.48-.46,22.95,2.69,40.54,29.07,36.34,50.07Z"/><path class="cls-3" d="M171.16,81.02c-6.04,12.81-23.98,17.59-34.81,6.96-8.4-8.24-8.23-21.43-6.27-31.93,1.45-7.83,4.47-18.72,12.94-22.29,3.19-4.05,7.82-6.74,14.06-6.74,22.52,0,20.12,41.21,14.09,54Zm-7.3-26.59c-.34-3.93-1.02-17.55-5.41-19.44-9.28-4.02-10.17,13.62-9.79,18.39,.52,6.55,2.58,11.61,8.47,15.19,4.12,2.5-5.89,5.4-8.92,3.56-3.85-2.34-6.63-6.17-8.35-10.62-.51,5.12-.33,10.36,1.26,15.26,1.4,4.32,4.55,10.42,9.91,11.17,6.19,.88,9.63-6.61,11.11-11.23,2.29-7.14,2.36-14.91,1.72-22.29Z"/><path class="cls-3" d="M215.12,106.88c.45,2.08-2.87,3.33-5.92,3.28-2.5,.07-4.83-.71-4.71-2.4-3.95-18.43-10.38-36.46-18.22-53.84,.26,11.54-.12,23.1-1.5,34.51-.49,4-11.06,4.35-10.63,.88,2.42-19.91,1.83-40.28,0-60.19-.01-.13,.02-.25,.03-.38,0-.08,0-.17,.02-.25,.75-3.13,9.34-3.78,10.45-.73,8.27,15.42,15.74,31.57,21.62,48.17,.71-16.57,1.11-33.15,1.17-49.73,.02-3.95,10.64-4.58,10.63-.88-.1,27.2-1,54.42-2.94,81.56Z"/><path class="cls-3" d="M230.9,33.52s-.08,3.02-3.35,5.57c-1.8,1.4-4.5,2.59-7.07,2.36-2.18-.19-3.15-1.64-1.66-3.03,.91-.85,1.09-1.73,1.02-2.82-.04-.56-.86-1.9-1.47-2.4-2.25-1.85-1.48-5.09,.39-7.03,3.64-3.77,8.53-1.49,9.7-.57,2.64,2.07,2.43,6.4,2.43,7.93Z"/><path class="cls-3" d="M266.58,35.54c-5.99,.04-12.44,.16-18.84,.78-1.21,18.03-1.96,36.11-1.99,54.18,0,3.95-10.64,4.58-10.63,.88,.03-17.82,.76-35.65,1.94-53.43-3.26,.72-6.42,1.66-9.4,2.88-3.82,1.57-3.37-8.55,.26-10.04,12.3-5.06,27.42-5.3,40.55-5.39,3.82-.03,2.4,10.11-1.89,10.14Z"/><path class="cls-3" d="M266.9,207.59c-6.04,12.81-23.98,17.59-34.81,6.96-8.4-8.24-8.23-21.43-6.27-31.93,1.45-7.83,4.47-18.72,12.94-22.29,3.19-4.05,7.82-6.74,14.06-6.74,22.52,0,20.12,41.21,14.09,54Zm-7.3-26.59c-.34-3.93-1.02-17.55-5.41-19.44-9.28-4.02-10.17,13.62-9.79,18.39,.52,6.55,2.58,11.61,8.47,15.19,4.12,2.5-5.89,5.4-8.92,3.56-3.85-2.34-6.63-6.17-8.35-10.62-.51,5.12-.33,10.36,1.26,15.26,1.4,4.32,4.55,10.42,9.91,11.17,6.19,.88,9.63-6.61,11.11-11.23,2.29-7.14,2.36-14.91,1.72-22.29Z"/><path class="cls-3" d="M315.34,231.74c.45,2.08-2.87,3.33-5.92,3.28-2.5,.07-4.83-.71-4.71-2.4-3.95-18.43-10.38-36.46-18.22-53.84,.26,11.54-.12,23.1-1.5,34.51-.49,4-11.06,4.35-10.63,.88,2.42-19.91,1.83-40.28,0-60.19-.01-.13,.02-.25,.03-.38,0-.08,0-.17,.02-.25,.75-3.13,9.34-3.78,10.45-.73,8.27,15.42,15.74,31.57,21.62,48.17,.71-16.57,1.11-33.15,1.17-49.73,.02-3.95,10.64-4.58,10.63-.88-.1,27.2-1,54.42-2.94,81.56Z"/><path class="cls-3" d="M87.69,310.37c-.65,28.42-1.77,56.85-3.8,85.22,.63,2.92-4.02,4.67-8.31,4.61-3.51,.1-6.77-.99-6.61-3.37-5.54-25.86-14.57-51.16-25.57-75.56,.36,16.19-.16,32.41-2.11,48.43-.69,5.61-15.51,6.11-14.92,1.24,3.4-27.94,2.56-56.52,0-84.47-.02-.19,.03-.36,.04-.54,.01-.11,0-.23,.03-.35,1.05-4.39,13.1-5.3,14.66-1.03,11.6,21.65,22.1,44.34,30.36,67.64,.57-13.53,1-27.06,1.31-40.59,.13-5.56,15.03-6.37,14.91-1.24Zm.33-29.24c0,5.82-.04,11.63-.12,17.45-.07,5.55-14.99,6.4-14.92,1.24,.07-5.82,.11-11.63,.11-17.45,0-5.54,14.92-6.43,14.93-1.24Z"/><path class="cls-3" d="M158.82,285c-2.85,7.17-6.08,14.34-9.53,21.48,4.62,18.27,1.42,42.61-3.56,53.16-6.89,14.62-24.81,21.79-39.44,15.94-.85,1.1-1.68,2.25-2.53,3.34-3.1,3.95-17.58,2.67-13.24-2.85,1.92-2.44,3.8-4.97,5.67-7.48-10.99-11.61-10.79-29.56-8.11-43.98,2.04-10.99,6.27-26.27,18.16-31.29,4.48-5.67,10.98-9.46,19.72-9.45,6.64,0,11.71,2.58,15.55,6.77,.92-2.17,1.88-4.33,2.74-6.5,1.91-4.83,16.72-4.53,14.58,.87Zm-54.1,71.72c2.45-3.54,4.84-7.13,7.19-10.77-4.54-3.31-7.95-8.11-10.11-13.68-.72,7.19-.46,14.54,1.77,21.42,.31,.96,.71,1.99,1.14,3.03Zm31.19-25.17c-7.21,12.37-15.1,24.41-23.43,35.81,1.49,1.02,3.15,1.74,5.01,2.01,8.69,1.23,13.51-9.27,15.58-15.75,2.27-7.08,2.94-14.6,2.84-22.07Zm-21.75-10.69c.44,5.57,1.69,10.35,4.43,14.39,5.47-9.07,10.6-18.34,15.21-27.71-1.07-5.77-2.84-11.16-5.91-12.49-13.03-5.64-14.27,19.12-13.74,25.81Z"/><path class="cls-3" d="M185.88,329.89c6-.53,11.99-.04,17.66,2.08,1.27,.48,3.21,2.1,2.27,3.62-10.93,17.58-12.78,39.87-.19,57.31,3.37,4.67-11.13,7.51-14.2,3.26-12.68-17.58-11.93-40.28-1.86-58.55-7.13-.43-16.23,3.34-22.2,6.38-.51,9.63-1.37,19.21-2.52,28.66-.69,5.61-15.51,6.11-14.92,1.24,3.57-29.25,4.69-59.78-.54-88.97-.93-5.17,13.95-6.65,14.92-1.24,.2,1.13,.33,2.28,.52,3.41,9.23-4.5,19.8-6.8,30.04-5.5,9.89,1.26,18.6,6.91,15.5,17.28-3.57,11.98-13.12,23.03-24.48,30.99Zm1.74-17.15c3.65-4.66,13.95-18.23,5.16-22.75-8.02-4.12-20.09,2.86-26.14,7.3-.11,.08-.26,.14-.39,.22,1.2,10.6,1.68,21.3,1.58,32.02,7.73-4.23,14.62-10.21,19.78-16.79Z"/><path class="cls-3" d="M244.39,329.89c6-.53,11.99-.04,17.66,2.08,1.27,.48,3.21,2.1,2.27,3.62-10.93,17.58-12.78,39.87-.19,57.31,3.37,4.67-11.13,7.51-14.2,3.26-12.68-17.58-11.93-40.28-1.86-58.55-7.13-.43-16.23,3.34-22.2,6.38-.51,9.63-1.37,19.21-2.52,28.66-.69,5.61-15.51,6.11-14.92,1.24,3.57-29.25,4.69-59.78-.54-88.97-.93-5.17,13.95-6.65,14.92-1.24,.2,1.13,.33,2.28,.52,3.41,9.23-4.5,19.8-6.8,30.04-5.5,9.89,1.26,18.6,6.91,15.5,17.28-3.57,11.98-13.12,23.03-24.48,30.99Zm1.74-17.15c3.65-4.66,13.95-18.23,5.16-22.75-8.02-4.12-20.09,2.86-26.14,7.3-.11,.08-.26,.14-.39,.22,1.2,10.6,1.68,21.3,1.58,32.02,7.73-4.23,14.62-10.21,19.78-16.79Z"/><path class="cls-3" d="M323.5,369.11c-7.79,9.03-32.48,10.19-43.01,5.36-12.03-5.51-17.21-18.22-15.45-30.32,1.68-11.52,8.83-20.25,18.45-26.15-11.57-2.54-19.92-9.01-8.44-21.88,12.27-13.76,25.25-13.88,35.13-6.28,.23-1.79,.48-3.57,.81-5.34,.9-4.86,15.69-5.15,14.58,.87-1.29,6.95-1.74,16.93-1.88,24.88,.64,1.93-1.5,3.37-4.34,4.05-4.42,1.33-10.64,.52-10.57-2.81-1.32-4-3.23-8.23-5.61-11.77-1.32-1.95-3.8-6.63-6.22-7.06-2.46-.44-9.62,6.65-10.89,8.95-5.51,9.99,5.52,10.32,13.57,9.84,4.65-.27,12.18,4.44,4.43,6.94-17.94,5.79-34.8,29.15-18.65,45.65,6.93,7.08,22.01,7.79,25.64-.82,3.36-7.98,.5-20.86-.22-28.97-.47-5.39,14.45-6.58,14.92-1.24,.8,9.02,4.88,27.85-2.24,36.11Z"/><path class="cls-3" d="M388.97,357.64c-3.82,22.44-30.1,20.73-48.17,15.94-2.13,4.78-15.33,4.91-14.65,.39,3.01-20.08,4.29-40.48,4.2-60.84,0-.05-.03-.08-.03-.14,0-.27,.02-.55,.02-.81-.06-9.35-.37-18.7-.98-28-.35-5.43,14.57-6.55,14.92-1.24,.04,.63,.06,1.26,.1,1.89,1.57-.67,3.29-1.18,5.18-1.5,11.83-2.01,28.78,6.31,32.77,17.49,3.71,10.4-7.15,15.3-18.52,17.56,15.28,7.97,28.08,21.97,25.15,39.25Zm-16.76-13.16c-4.56-11.66-14.86-19.66-26.99-23.48-.25,15.05-1.29,30.08-3.24,44.97,1.73-.3,3.38-.35,4.54,.01,20.41,6.37,32.79-3.4,25.7-21.5Zm-26.95-34.77c.01,.92,.02,1.84,.02,2.76,5.62-.08,14.83,.19,19.39-2.92,5.92-4.04,2.51-9.73-3.25-13.31-12.01-7.47-15.85,4-16.15,13.47Z"/><path class="cls-3" d="M424.36,329.89c6-.53,11.99-.04,17.66,2.08,1.27,.48,3.21,2.1,2.27,3.62-10.93,17.58-12.78,39.87-.19,57.31,3.37,4.67-11.13,7.51-14.2,3.26-12.68-17.58-11.93-40.28-1.86-58.55-7.13-.43-16.23,3.34-22.2,6.38-.51,9.63-1.37,19.21-2.52,28.66-.69,5.61-15.51,6.11-14.92,1.24,3.57-29.25,4.69-59.78-.54-88.97-.93-5.17,13.95-6.65,14.92-1.24,.2,1.13,.33,2.28,.52,3.41,9.23-4.5,19.8-6.8,30.04-5.5,9.89,1.26,18.6,6.91,15.5,17.28-3.57,11.98-13.12,23.03-24.48,30.99Zm1.74-17.15c3.65-4.66,13.95-18.23,5.16-22.75-8.02-4.12-20.09,2.86-26.14,7.3-.11,.08-.26,.14-.39,.22,1.2,10.6,1.68,21.3,1.58,32.02,7.73-4.23,14.62-10.21,19.78-16.79Z"/><path class="cls-3" d="M505.53,359.3c-8.48,17.98-33.65,24.69-48.85,9.77-11.78-11.57-11.55-30.07-8.8-44.81,2.04-10.99,6.27-26.27,18.15-31.28,4.48-5.68,10.98-9.46,19.72-9.46,31.61,.01,28.23,57.83,19.77,75.78Zm-10.24-37.32c-.48-5.52-1.43-24.62-7.59-27.28-13.03-5.64-14.27,19.12-13.74,25.81,.73,9.2,3.61,16.3,11.89,21.31,5.78,3.5-8.26,7.58-12.52,5-5.4-3.28-9.3-8.66-11.72-14.9-.72,7.19-.46,14.54,1.77,21.42,1.96,6.06,6.39,14.62,13.91,15.68,8.68,1.23,13.51-9.27,15.58-15.75,3.21-10.01,3.31-20.92,2.41-31.29Z"/></g><path d="M122.19,71.22c-3.49,17.46-22.43,19.52-36.08,12.3-.05,.13-.08,.25-.13,.38-1.36,3.44-11.91,3.23-10.39-.62,.81-2.06,1.48-4.13,2.12-6.22-.7-.79-1.38-1.59-1.98-2.45-1.2-1.74,.91-3.1,3.55-3.61,1.31-5.85,2.1-11.79,2.38-17.85,.18-3.98,10.8-4.51,10.63-.88-.36,7.94-1.44,15.77-3.57,23.39,5.24,5.2,13.79,9.61,19.64,3.45,4.96-5.23,4.35-14.88,2.89-21.3-2.2-9.67-9.78-23.05-20.15-28.61,.57,4.05,.9,8.13,1.12,12.18,.2,3.89-10.43,4.65-10.63,.88-.31-5.92-.83-11.92-2.08-17.74-.29-1.37,1.05-2.38,2.86-2.9,1-.4,2.2-.61,3.48-.46,22.95,2.69,40.54,29.07,36.34,50.07Z"/><path d="M163.91,74.65c-6.04,12.81-23.98,17.59-34.81,6.96-8.4-8.24-8.23-21.43-6.27-31.93,1.45-7.83,4.47-18.72,12.94-22.29,3.19-4.05,7.82-6.74,14.06-6.74,22.52,0,20.12,41.21,14.09,54Zm-7.3-26.59c-.34-3.93-1.02-17.55-5.41-19.44-9.28-4.02-10.17,13.62-9.79,18.39,.52,6.55,2.58,11.61,8.47,15.19,4.12,2.5-5.89,5.4-8.92,3.56-3.85-2.34-6.63-6.17-8.35-10.62-.51,5.12-.33,10.36,1.26,15.26,1.4,4.32,4.55,10.42,9.91,11.17,6.19,.88,9.63-6.61,11.11-11.23,2.29-7.14,2.36-14.91,1.72-22.29Z"/><path d="M207.86,100.51c.45,2.08-2.87,3.33-5.92,3.28-2.5,.07-4.83-.71-4.71-2.4-3.95-18.43-10.38-36.46-18.22-53.84,.26,11.54-.12,23.1-1.5,34.51-.49,4-11.06,4.35-10.63,.88,2.42-19.91,1.83-40.28,0-60.19-.01-.13,.02-.25,.03-.38,0-.08,0-.17,.02-.25,.75-3.13,9.34-3.78,10.45-.73,8.27,15.42,15.74,31.57,21.62,48.17,.71-16.57,1.11-33.15,1.17-49.73,.02-3.95,10.64-4.58,10.63-.88-.1,27.2-1,54.42-2.94,81.56Z"/><path d="M223.65,27.15s-.08,3.02-3.35,5.57c-1.8,1.4-4.5,2.59-7.07,2.36-2.18-.19-3.15-1.64-1.66-3.03,.91-.85,1.09-1.73,1.02-2.82-.04-.56-.86-1.9-1.47-2.4-2.25-1.85-1.48-5.09,.39-7.03,3.64-3.77,8.53-1.49,9.7-.57,2.64,2.07,2.43,6.4,2.43,7.93Z"/><path d="M259.32,29.17c-5.99,.04-12.44,.16-18.84,.78-1.21,18.03-1.96,36.11-1.99,54.18,0,3.95-10.64,4.58-10.63,.88,.03-17.82,.76-35.65,1.94-53.43-3.26,.72-6.42,1.66-9.4,2.88-3.82,1.57-3.37-8.55,.26-10.04,12.3-5.06,27.42-5.3,40.55-5.39,3.82-.03,2.4,10.11-1.89,10.14Z"/><path d="M259.65,201.22c-6.04,12.81-23.98,17.59-34.81,6.96-8.4-8.24-8.23-21.43-6.27-31.93,1.45-7.83,4.47-18.72,12.94-22.29,3.19-4.05,7.82-6.74,14.06-6.74,22.52,0,20.12,41.21,14.09,54Zm-7.3-26.59c-.34-3.93-1.02-17.55-5.41-19.44-9.28-4.02-10.17,13.62-9.79,18.39,.52,6.55,2.58,11.61,8.47,15.19,4.12,2.5-5.89,5.4-8.92,3.56-3.85-2.34-6.63-6.17-8.35-10.62-.51,5.12-.33,10.36,1.26,15.26,1.4,4.32,4.55,10.42,9.91,11.17,6.19,.88,9.63-6.61,11.11-11.23,2.29-7.14,2.36-14.91,1.72-22.29Z"/><path d="M308.08,225.37c.45,2.08-2.87,3.33-5.92,3.28-2.5,.07-4.83-.71-4.71-2.4-3.95-18.43-10.38-36.46-18.22-53.84,.26,11.54-.12,23.1-1.5,34.51-.49,4-11.06,4.35-10.63,.88,2.42-19.91,1.83-40.28,0-60.19-.01-.13,.02-.25,.03-.38,0-.08,0-.17,.02-.25,.75-3.13,9.34-3.78,10.45-.73,8.27,15.42,15.74,31.57,21.62,48.17,.71-16.57,1.11-33.15,1.17-49.73,.02-3.95,10.64-4.58,10.63-.88-.1,27.2-1,54.42-2.94,81.56Z"/><path d="M80.44,304c-.65,28.42-1.77,56.85-3.8,85.22,.63,2.92-4.02,4.67-8.31,4.61-3.51,.1-6.77-.99-6.61-3.37-5.54-25.86-14.57-51.16-25.57-75.56,.36,16.19-.16,32.41-2.11,48.43-.69,5.61-15.51,6.11-14.92,1.24,3.4-27.94,2.56-56.52,0-84.47-.02-.19,.03-.36,.04-.54,.01-.11,0-.23,.03-.35,1.05-4.39,13.1-5.3,14.66-1.03,11.6,21.65,22.1,44.34,30.36,67.64,.57-13.53,1-27.06,1.31-40.59,.13-5.56,15.03-6.37,14.91-1.24Zm.33-29.24c0,5.82-.04,11.63-.12,17.45-.07,5.55-14.99,6.4-14.92,1.24,.07-5.82,.11-11.63,.11-17.45,0-5.54,14.92-6.43,14.93-1.24Z"/><path d="M151.56,278.63c-2.85,7.17-6.08,14.34-9.53,21.48,4.62,18.27,1.42,42.61-3.56,53.16-6.89,14.62-24.81,21.79-39.44,15.94-.85,1.1-1.68,2.25-2.53,3.34-3.1,3.95-17.58,2.67-13.24-2.85,1.92-2.44,3.8-4.97,5.67-7.48-10.99-11.61-10.79-29.56-8.11-43.98,2.04-10.99,6.27-26.27,18.16-31.29,4.48-5.67,10.98-9.46,19.72-9.45,6.64,0,11.71,2.58,15.55,6.77,.92-2.17,1.88-4.33,2.74-6.5,1.91-4.83,16.72-4.53,14.58,.87Zm-54.1,71.72c2.45-3.54,4.84-7.13,7.19-10.77-4.54-3.31-7.95-8.11-10.11-13.68-.72,7.19-.46,14.54,1.77,21.42,.31,.96,.71,1.99,1.14,3.03Zm31.19-25.17c-7.21,12.37-15.1,24.41-23.43,35.81,1.49,1.02,3.15,1.74,5.01,2.01,8.69,1.23,13.51-9.27,15.58-15.75,2.27-7.08,2.94-14.6,2.84-22.07Zm-21.75-10.69c.44,5.57,1.69,10.35,4.43,14.39,5.47-9.07,10.6-18.34,15.21-27.71-1.07-5.77-2.84-11.16-5.91-12.49-13.03-5.64-14.27,19.12-13.74,25.81Z"/><path d="M178.62,323.52c6-.53,11.99-.04,17.66,2.08,1.27,.48,3.21,2.1,2.27,3.62-10.93,17.58-12.78,39.87-.19,57.31,3.37,4.67-11.13,7.51-14.2,3.26-12.68-17.58-11.93-40.28-1.86-58.55-7.13-.43-16.23,3.34-22.2,6.38-.51,9.63-1.37,19.21-2.52,28.66-.69,5.61-15.51,6.11-14.92,1.24,3.57-29.25,4.69-59.78-.54-88.97-.93-5.17,13.95-6.65,14.92-1.24,.2,1.13,.33,2.28,.52,3.41,9.23-4.5,19.8-6.8,30.04-5.5,9.89,1.26,18.6,6.91,15.5,17.28-3.57,11.98-13.12,23.03-24.48,30.99Zm1.74-17.15c3.65-4.66,13.95-18.23,5.16-22.75-8.02-4.12-20.09,2.86-26.14,7.3-.11,.08-.26,.14-.39,.22,1.2,10.6,1.68,21.3,1.58,32.02,7.73-4.23,14.62-10.21,19.78-16.79Z"/><path d="M237.13,323.52c6-.53,11.99-.04,17.66,2.08,1.27,.48,3.21,2.1,2.27,3.62-10.93,17.58-12.78,39.87-.19,57.31,3.37,4.67-11.13,7.51-14.2,3.26-12.68-17.58-11.93-40.28-1.86-58.55-7.13-.43-16.23,3.34-22.2,6.38-.51,9.63-1.37,19.21-2.52,28.66-.69,5.61-15.51,6.11-14.92,1.24,3.57-29.25,4.69-59.78-.54-88.97-.93-5.17,13.95-6.65,14.92-1.24,.2,1.13,.33,2.28,.52,3.41,9.23-4.5,19.8-6.8,30.04-5.5,9.89,1.26,18.6,6.91,15.5,17.28-3.57,11.98-13.12,23.03-24.48,30.99Zm1.74-17.15c3.65-4.66,13.95-18.23,5.16-22.75-8.02-4.12-20.09,2.86-26.14,7.3-.11,.08-.26,.14-.39,.22,1.2,10.6,1.68,21.3,1.58,32.02,7.73-4.23,14.62-10.21,19.78-16.79Z"/><path d="M316.24,362.74c-7.79,9.03-32.48,10.19-43.01,5.36-12.03-5.51-17.21-18.22-15.45-30.32,1.68-11.52,8.83-20.25,18.45-26.15-11.57-2.54-19.92-9.01-8.44-21.88,12.27-13.76,25.25-13.88,35.13-6.28,.23-1.79,.48-3.57,.81-5.34,.9-4.86,15.69-5.15,14.58,.87-1.29,6.95-1.74,16.93-1.88,24.88,.64,1.93-1.5,3.37-4.34,4.05-4.42,1.33-10.64,.52-10.57-2.81-1.32-4-3.23-8.23-5.61-11.77-1.32-1.95-3.8-6.63-6.22-7.06-2.46-.44-9.62,6.65-10.89,8.95-5.51,9.99,5.52,10.32,13.57,9.84,4.65-.27,12.18,4.44,4.43,6.94-17.94,5.79-34.8,29.15-18.65,45.65,6.93,7.08,22.01,7.79,25.64-.82,3.36-7.98,.5-20.86-.22-28.97-.47-5.39,14.45-6.58,14.92-1.24,.8,9.02,4.88,27.85-2.24,36.11Z"/><path d="M381.71,351.27c-3.82,22.44-30.1,20.73-48.17,15.94-2.13,4.78-15.33,4.91-14.65,.39,3.01-20.08,4.29-40.48,4.2-60.84,0-.05-.03-.08-.03-.14,0-.27,.02-.55,.02-.81-.06-9.35-.37-18.7-.98-28-.35-5.43,14.57-6.55,14.92-1.24,.04,.63,.06,1.26,.1,1.89,1.57-.67,3.29-1.18,5.18-1.5,11.83-2.01,28.78,6.31,32.77,17.49,3.71,10.4-7.15,15.3-18.52,17.56,15.28,7.97,28.08,21.97,25.15,39.25Zm-16.76-13.16c-4.56-11.66-14.86-19.66-26.99-23.48-.25,15.05-1.29,30.08-3.24,44.97,1.73-.3,3.38-.35,4.54,.01,20.41,6.37,32.79-3.4,25.7-21.5Zm-26.95-34.77c.01,.92,.02,1.84,.02,2.76,5.62-.08,14.83,.19,19.39-2.92,5.92-4.04,2.51-9.73-3.25-13.31-12.01-7.47-15.85,4-16.15,13.47Z"/><path d="M417.1,323.52c6-.53,11.99-.04,17.66,2.08,1.27,.48,3.21,2.1,2.27,3.62-10.93,17.58-12.78,39.87-.19,57.31,3.37,4.67-11.13,7.51-14.2,3.26-12.68-17.58-11.93-40.28-1.86-58.55-7.13-.43-16.23,3.34-22.2,6.38-.51,9.63-1.37,19.21-2.52,28.66-.69,5.61-15.51,6.11-14.92,1.24,3.57-29.25,4.69-59.78-.54-88.97-.93-5.17,13.95-6.65,14.92-1.24,.2,1.13,.33,2.28,.52,3.41,9.23-4.5,19.8-6.8,30.04-5.5,9.89,1.26,18.6,6.91,15.5,17.28-3.57,11.98-13.12,23.03-24.48,30.99Zm1.74-17.15c3.65-4.66,13.95-18.23,5.16-22.75-8.02-4.12-20.09,2.86-26.14,7.3-.11,.08-.26,.14-.39,.22,1.2,10.6,1.68,21.3,1.58,32.02,7.73-4.23,14.62-10.21,19.78-16.79Z"/><path d="M498.28,352.93c-8.48,17.98-33.65,24.69-48.85,9.77-11.78-11.57-11.55-30.07-8.8-44.81,2.04-10.99,6.27-26.27,18.15-31.28,4.48-5.68,10.98-9.46,19.72-9.46,31.61,.01,28.23,57.83,19.77,75.78Zm-10.24-37.32c-.48-5.52-1.43-24.62-7.59-27.28-13.03-5.64-14.27,19.12-13.74,25.81,.73,9.2,3.61,16.3,11.89,21.31,5.78,3.5-8.26,7.58-12.52,5-5.4-3.28-9.3-8.66-11.72-14.9-.72,7.19-.46,14.54,1.77,21.42,1.96,6.06,6.39,14.62,13.91,15.68,8.68,1.23,13.51-9.27,15.58-15.75,3.21-10.01,3.31-20.92,2.41-31.29Z"/><g><path class="cls-1" d="M361.92,117.53c.09-.18,.19-.68,.29-1.49,.09-.82,.17-1.7,.22-2.65,.05-.95,.12-1.88,.22-2.79,.09-.91,.19-1.54,.29-1.9,0-.09,.05-.48,.14-1.16,.09-.68,.17-1.41,.22-2.17,.05-.77,.12-1.47,.22-2.11,.09-.63,.14-1.04,.14-1.22v-3.67c-.29,0-.79,.07-1.51,.2s-1.48,.3-2.29,.48c-.81,.18-1.6,.34-2.37,.48-.77,.14-1.29,.2-1.58,.2-.57,.18-1.43,.34-2.58,.48s-1.82,.2-2.01,.2c-.48,.09-1.24,.18-2.29,.27-1.05,.09-2.2,.16-3.44,.2-1.24,.05-2.42,.11-3.51,.2-1.1,.09-1.89,.18-2.37,.27h-5.59c-.1-.18-.34-.45-.72-.82-.38-.36-.62-.63-.72-.82v-.82c.09-.18,.22-.54,.36-1.09,.14-.54,.21-.91,.21-1.09,.19-.18,.6-.63,1.22-1.36,.62-.72,1.08-1.18,1.36-1.36,.09-.09,.29-.29,.57-.61,.29-.32,.6-.63,.93-.95s.79-.79,1.36-1.43c0-.27,.05-.59,.14-.95,.19-.72,.29-1.18,.29-1.36,0-.27-.07-.79-.22-1.56-.14-.77-.22-1.24-.22-1.43s-.07-.72-.22-1.63c-.14-.91-.31-1.58-.5-2.04,0-.18-.1-.54-.29-1.09-.19-.54-.38-.86-.57-.95,0-.36-.22-1.04-.64-2.04-.43-1-.65-1.54-.65-1.63-.29-.54-.5-1.36-.64-2.45s-.31-1.72-.5-1.9c0-.09-.1-.72-.29-1.9-.19-1.18-.43-2.6-.72-4.28-.29-1.68-.6-3.51-.93-5.5-.34-1.99-.67-3.85-1-5.57-.34-1.72-.64-3.17-.93-4.35-.29-1.18-.48-1.86-.57-2.04-.19-.18-.41-.63-.65-1.36-.24-.72-.45-1.49-.64-2.31-.19-.82-.38-1.58-.57-2.31-.19-.72-.29-1.13-.29-1.22-.29-.09-.91-.63-1.86-1.63-.95-1-1.62-1.68-2.01-2.04-.09,0-.31-.09-.64-.27-.33-.18-.69-.38-1.08-.61-.38-.23-.72-.45-1-.68-.29-.23-.43-.38-.43-.48v-3.67c.1-.18,.19-.41,.29-.68,.19-.54,.29-.86,.29-.95,.19-.09,.5-.34,.93-.75,.43-.41,.88-.86,1.36-1.36,.48-.5,.96-.93,1.43-1.29,.48-.36,.81-.63,1-.82,.19-.18,.48-.34,.86-.48,.38-.14,.67-.2,.86-.2h.72c.19,0,.41-.02,.65-.07,.24-.04,.45-.07,.64-.07,.09,0,.38,.02,.86,.07,.48,.05,.81,.07,1,.07,.09,0,.36,.07,.79,.2,.43,.14,.91,.27,1.43,.41,.52,.14,1.03,.27,1.51,.41,.48,.14,.76,.2,.86,.2,.09,.09,.41,.2,.93,.34,.52,.14,1.07,.25,1.65,.34,.57,.09,1.12,.18,1.65,.27,.52,.09,.88,.14,1.08,.14,.57,0,1.94,.07,4.09,.2,2.15,.14,4.42,.27,6.81,.41,2.39,.14,4.66,.29,6.81,.48,2.15,.18,3.51,.27,4.09,.27,.09,0,.41,.05,.93,.14,.52,.09,1.12,.16,1.79,.2,.67,.05,1.31,.12,1.94,.2,.62,.09,1.08,.14,1.36,.14s1.05,.09,2.29,.27c1.24,.18,2.1,.27,2.58,.27,.38,.18,1.05,.36,2.01,.54,.95,.18,1.58,.36,1.86,.54,.38,0,.91,.09,1.58,.27,.67,.18,1.1,.27,1.29,.27s.62,.12,1.29,.34c.67,.23,1.1,.39,1.29,.48,.29,0,.91,.2,1.86,.61,.95,.41,1.62,.61,2.01,.61,0,.18,.24,.36,.72,.54,.48,.18,.81,.36,1,.54,.09,.09,.43,.32,1,.68,.57,.36,.95,.59,1.15,.68,.29,.18,.67,.48,1.15,.88,.48,.41,.95,.84,1.43,1.29,.48,.45,.91,.88,1.29,1.29,.38,.41,.57,.7,.57,.88,.09,.18,.36,1.04,.79,2.58,.43,1.54,.91,3.22,1.43,5.03,.52,1.81,.98,3.51,1.36,5.1,.38,1.59,.57,2.43,.57,2.51-.19,2.45-.38,4.67-.57,6.66-.19,1.72-.34,3.33-.43,4.83-.1,1.49-.14,2.33-.14,2.51,0,.27-.07,.59-.22,.95-.14,.36-.31,.73-.5,1.09l-.57,1.36c0,.18-.1,.57-.29,1.15-.19,.59-.29,1.02-.29,1.29-.19,.18-.53,.63-1,1.36-.48,.73-.72,1.18-.72,1.36-.19,.27-.57,.82-1.15,1.63-.57,.82-.91,1.27-1,1.36-.29,.18-.72,.52-1.29,1.02-.57,.5-1.15,1.02-1.72,1.56-.57,.54-1.12,1.07-1.65,1.56-.53,.5-.84,.88-.93,1.16-.19,0-.65,.27-1.36,.82-.72,.54-1.36,.95-1.94,1.22-.1,.18-.43,.45-1,.82-.57,.36-.96,.64-1.15,.82-.48,.18-1.2,.54-2.15,1.09-.96,.54-1.53,.86-1.72,.95-.19,.09-.5,.25-.93,.48-.43,.23-.93,.45-1.51,.68-.57,.23-1.1,.45-1.58,.68-.48,.23-.77,.39-.86,.48l-.72,.54c0,.36-.1,1.13-.29,2.31-.19,1.18-.29,1.9-.29,2.17-.19,.18-.36,.57-.5,1.16-.14,.59-.26,.97-.36,1.16l-.72-.68c-.1-.09-.22-.36-.36-.82-.14-.45-.26-.95-.36-1.49-.1-.54-.17-1.02-.21-1.43-.05-.41-.07-.7-.07-.88h-1.29c-.38,0-.74,.11-1.08,.34-.34,.23-.5,.43-.5,.61v2.72c-.1,.45-.26,1.56-.5,3.33-.24,1.77-.45,3.71-.64,5.84-.19,2.13-.41,4.21-.64,6.25-.24,2.04-.41,3.56-.5,4.55-.1,.36-.19,.82-.29,1.36-.1,.54-.19,1.09-.29,1.63-.1,.63-.19,1.31-.29,2.04h-.72c-.1-.54-.19-1.09-.29-1.63-.1-.45-.22-.91-.36-1.36-.14-.45-.26-.86-.36-1.22v-3.67Zm-16.2-76.92c.09,.09,.22,.88,.36,2.38,.14,1.49,.33,3.35,.57,5.57,.24,2.22,.5,4.62,.79,7.2,.29,2.58,.53,4.98,.72,7.2,.19,2.22,.36,4.1,.5,5.64,.14,1.54,.26,2.36,.36,2.45,0,.18,.09,.54,.29,1.09,.19,.54,.29,.91,.29,1.09,.19,.45,.36,1.04,.5,1.77,.14,.73,.21,1.18,.21,1.36,.09,.45,.22,1.29,.36,2.51,.14,1.22,.26,2.54,.36,3.94,.09,1.41,.17,2.74,.22,4.01,.05,1.27,.07,2.13,.07,2.58h2.15c.29,0,.76-.04,1.43-.14,.67-.09,1.36-.16,2.08-.2,.72-.04,1.43-.11,2.15-.2,.72-.09,1.22-.14,1.51-.14,.19,0,.76-.09,1.72-.27,.95-.18,1.67-.36,2.15-.54,.29,0,.81-.09,1.58-.27,.76-.18,1.24-.27,1.43-.27,.38-.09,.93-.25,1.65-.48,.72-.23,1.46-.45,2.22-.68,.76-.22,1.43-.45,2.01-.68,.57-.22,.95-.38,1.15-.48,.19,0,.55-.14,1.08-.41,.52-.27,1.1-.59,1.72-.95,.62-.36,1.24-.68,1.86-.95,.62-.27,1.08-.5,1.36-.68,.38-.18,.88-.43,1.51-.75,.62-.32,.93-.56,.93-.75,.48-.27,1.08-.82,1.79-1.63s1.17-1.22,1.36-1.22v-2.04c-.1-.09-.14-.45-.14-1.09s.05-1.29,.14-1.97c.09-.68,.14-1.29,.14-1.83s-.05-.82-.14-.82c0-.09-.1-.66-.29-1.7-.19-1.04-.43-2.35-.72-3.94-.29-1.58-.57-3.26-.86-5.03-.29-1.77-.57-3.44-.86-5.03-.29-1.58-.55-2.9-.79-3.94-.24-1.04-.36-1.61-.36-1.7-.1,0-.34-.14-.72-.41-.38-.27-.77-.59-1.15-.95-.38-.36-.77-.68-1.15-.95-.38-.27-.62-.41-.72-.41,0-.09-.05,.61-.14,2.11-.1,1.5-.19,3.38-.29,5.64-.1,2.27-.22,4.73-.36,7.41-.14,2.67-.26,5.14-.36,7.41-.1,2.27-.24,4.94-.43,8.02-.1-.09-.22-.95-.36-2.58-.14-1.63-.29-3.67-.43-6.12-.14-2.45-.29-5.07-.43-7.88-.14-2.81-.29-5.44-.43-7.88-.14-2.45-.29-4.46-.43-6.05-.14-1.58-.26-2.38-.36-2.38-.19-.09-.57-.2-1.15-.34-.57-.14-.96-.29-1.15-.48-.48,0-1.1-.09-1.86-.27-.77-.18-1.24-.27-1.43-.27h-2.15c-.19,0-.36,.16-.5,.48-.14,.32-.31,.61-.5,.88,0,.09-.02,.84-.07,2.24-.05,1.41-.1,3.15-.14,5.23-.05,2.09-.1,4.33-.14,6.73-.05,2.4-.1,4.64-.14,6.73-.05,2.09-.1,3.83-.14,5.23-.05,1.41-.07,2.15-.07,2.24l-.57,1.22-1.29-.54v-29.9l-.72-.68c-.19-.18-.41-.34-.65-.48-.24-.14-.45-.29-.64-.48-.1,0-.43-.09-1-.27-.57-.18-.96-.27-1.15-.27-.29,0-.79-.04-1.51-.14-.72-.09-1.48-.16-2.29-.2-.81-.04-1.6-.11-2.37-.2-.77-.09-1.29-.14-1.58-.14s-.69-.02-1.22-.07c-.53-.04-1.1-.07-1.72-.07h-2.8l.14,.82Z"/><path class="cls-1" d="M397.48,20.63c0-.09,.02-.2,.07-.34,.05-.14,.07-.25,.07-.34s.05-.18,.14-.27c.09-.36,.45-.86,1.08-1.5,.62-.63,.98-1.04,1.08-1.22,.09,0,.36-.11,.79-.34,.43-.22,.91-.5,1.43-.82,.52-.32,1.03-.61,1.51-.88,.48-.27,.86-.45,1.15-.54,.19-.09,.48-.14,.86-.14h.86l.86,.27c.29,.09,.67,.14,1.15,.14,.38,.18,.72,.32,1,.41,.19,.09,.43,.18,.72,.27,0,.45,.05,.86,.14,1.22,.19,.91,.33,1.5,.43,1.77,0,.18,.02,.59,.07,1.22,.05,.63,.09,1.31,.14,2.04,.05,.73,.12,1.45,.21,2.17,.09,.73,.14,1.27,.14,1.63v3.33c0,1.41,.02,2.79,.07,4.15,.05,1.36,.09,2.58,.14,3.67,.05,1.09,.12,1.72,.22,1.9-.1,.36-.19,.68-.29,.95-.19,.54-.34,.95-.43,1.22-.1,.18-.14,.39-.14,.61s-.05,.43-.14,.61c-.1,.27-.19,.5-.29,.68-.29,.18-.57,.57-.86,1.15-.29,.59-.53,.88-.72,.88-.19,.09-.6,.32-1.22,.68-.62,.36-1.29,.73-2.01,1.09-.72,.36-1.41,.7-2.08,1.02-.67,.32-1.15,.52-1.43,.61,0,.18-.31,.27-.93,.27s-1.08,.09-1.36,.27l-.29-.14h-.43c-.1-.18-.34-.43-.72-.75-.38-.32-.53-.56-.43-.75,.09-.09,.12-.54,.07-1.36-.05-.82-.07-1.27-.07-1.36-.1-.63-.17-1.61-.22-2.92-.05-1.31-.07-2.67-.07-4.08v-6.18c0-.18-.05-.72-.14-1.63-.1-.9-.19-1.88-.29-2.92-.1-1.04-.14-2.02-.14-2.92v-1.63c0-.18,.05-.36,.14-.54,0-.18,.02-.32,.07-.41,.05-.09,.07-.18,.07-.27Zm7.31,95v-12.5c-.38-.18-.93-.45-1.65-.82-.72-.36-1.27-.63-1.65-.82-.1-.27-.19-.5-.29-.68-.19-.36-.29-.59-.29-.68,0-.18-.12-.77-.36-1.77-.24-1-.36-1.63-.36-1.9-.1-.27-.22-.72-.36-1.36-.14-.63-.26-1.29-.36-1.97-.1-.68-.17-1.36-.22-2.04-.05-.68-.07-1.16-.07-1.43-.1-1.09-.22-2.6-.36-4.55-.14-1.95-.29-3.94-.43-5.98-.14-2.04-.29-3.87-.43-5.5s-.26-2.58-.36-2.85v-11.01c.19-.36,.45-.93,.79-1.7,.33-.77,.6-1.24,.79-1.43l1.51-1.43c.81-.77,1.36-1.24,1.65-1.43,.19-.27,.6-.56,1.22-.88,.62-.32,1.03-.48,1.22-.48,.09,0,.43-.07,1-.2,.57-.14,.95-.2,1.15-.2,.09,0,.43,.09,1,.27,.29,.09,.52,.14,.72,.14l.57,1.36c.09,.54,.19,1.56,.29,3.06,.09,1.49,.17,3.06,.22,4.69,.05,1.63,.12,3.17,.22,4.62,.09,1.45,.14,2.45,.14,2.99s.07,1.59,.21,3.13c.14,1.54,.31,3.22,.5,5.03,.19,1.81,.38,3.53,.57,5.16,.19,1.63,.33,2.81,.43,3.53,0,.18,.05,.54,.14,1.09,.09,.54,.17,1.11,.21,1.7,.05,.59,.12,1.11,.22,1.56,.09,.45,.14,.73,.14,.82v2.99c0,.18-.12,.57-.36,1.16-.24,.59-.36,.97-.36,1.15-.19,.09-.53,.45-1,1.09-.29,.36-.53,.68-.72,.95-.19,.54-.48,1.09-.86,1.63,0,.73-.05,2.06-.14,4.01-.1,1.95-.22,4.01-.36,6.18-.14,2.17-.29,4.21-.43,6.12-.14,1.9-.26,3.26-.36,4.08,0,.18-.12,.84-.36,1.97-.24,1.13-.45,2.01-.64,2.65,0,.36-.12,1.02-.36,1.97-.24,.95-.36,1.52-.36,1.7s-.1,.54-.29,1.09c-.19,.54-.38,.86-.57,.95v-14.68l-.57-.54Z"/><path class="cls-1" d="M433.61,96.87c-.19,.18-.38,.32-.57,.41-.19,.09-.36,.18-.5,.27-.14,.09-.31,.14-.5,.14-.29,.18-.62,.41-1,.68-.77,.54-1.2,.86-1.29,.95-.57,.18-1.15,.41-1.72,.68l-1.15,.54c-.19,0-.41,.05-.65,.14-.24,.09-.45,.14-.64,.14s-.41-.04-.64-.14c-.24-.09-.46-.14-.65-.14l-.29-.27-.29-.27v-2.31c.09-.72,.19-1.29,.29-1.7,.09-.41,.17-.82,.21-1.22,.05-.41,.07-.66,.07-.75,.19-.63,.38-1.49,.57-2.58,.19-1.09,.29-1.72,.29-1.9v-21.2c0-.09-.1-.2-.29-.34-.19-.14-.38-.29-.57-.48h-.57c-.1,.09-.36,.18-.79,.27-.43,.09-.86,.16-1.29,.2-.43,.05-1.03,.16-1.79,.34h-3.87c-.19-.09-.34-.18-.43-.27-.19-.18-.29-.36-.29-.54l-.29-.27c-.1-.09-.14-.32-.14-.68,0-.27,.05-.5,.14-.68l.29-.54c0-.18,.05-.41,.14-.68,.29-.45,.48-.72,.57-.82,.09-.18,.33-.54,.72-1.09,.38-.54,.62-.91,.72-1.09,0-.18,.24-.43,.72-.75,.48-.32,.81-.56,1-.75,.19,0,.67-.32,1.43-.95,.76-.63,1.24-1.04,1.43-1.22,.29,0,.52-.09,.72-.27,.09-.09,.19-.23,.29-.41v-1.36c-.1-.18-.22-.95-.36-2.31-.14-1.36-.31-2.85-.5-4.49-.19-1.63-.36-3.15-.5-4.55-.14-1.4-.26-2.24-.36-2.51l-1.43-2.72c-.19-.27-.48-.7-.86-1.29-.38-.59-.67-.88-.86-.88-.19-.36-.67-.93-1.43-1.7-.77-.77-1.24-1.24-1.43-1.43-.19,0-.62-.2-1.29-.61-.67-.41-1.1-.66-1.29-.75l-.57-.68v-2.99c0-.18,.22-.66,.64-1.43,.43-.77,.69-1.24,.79-1.43,.19-.36,.69-.93,1.51-1.7,.81-.77,1.31-1.24,1.51-1.43,.38-.09,.98-.32,1.79-.68,.81-.36,1.31-.59,1.51-.68h2.15c.09,0,.43,.11,1,.34,.57,.23,1.17,.48,1.79,.75,.62,.27,1.19,.5,1.72,.68,.52,.18,.88,.27,1.08,.27,.48,.27,1.19,.61,2.15,1.02,.95,.41,1.53,.61,1.72,.61,.48,.18,1.17,.41,2.08,.68,.91,.27,1.86,.57,2.87,.88,1,.32,1.91,.61,2.72,.88,.81,.27,1.31,.45,1.51,.54,.19,0,.67,.09,1.43,.27,.76,.18,1.65,.41,2.65,.68,1,.27,2.01,.52,3.01,.75,1,.23,1.79,.34,2.37,.34,.19,0,.76,.11,1.72,.34,.95,.23,1.67,.34,2.15,.34,.19,.09,.52,.2,1,.34,.48,.14,.95,.25,1.43,.34,.48,.09,.93,.16,1.36,.2,.43,.05,.69,.07,.79,.07,.67,0,1.77,.07,3.3,.2,1.53,.14,3.15,.3,4.88,.48,1.72,.18,3.34,.34,4.88,.48,1.53,.14,2.63,.25,3.3,.34l.29,.27,.29,.27v3.13l-.57,1.22c-.19,.27-.48,.63-.86,1.09-.38,.45-.77,.91-1.15,1.36-.38,.45-.77,.91-1.15,1.36-.38,.45-.62,.73-.72,.82l-1.58,28.95-1.29,.68v-28.13l-.57,.27c-.1,.09-.19,.14-.29,.14s-.14,.05-.14,.14c-.1,.09-.19,.75-.29,1.97-.1,1.22-.17,2.54-.22,3.94-.05,1.41-.17,3.24-.36,5.5,0,.18-.19,.36-.57,.54l-.57,.27v-12.78c-.38-.09-1.08-.18-2.08-.27-1-.09-2.06-.16-3.15-.2-1.1-.04-2.15-.11-3.15-.2-1-.09-1.7-.14-2.08-.14-.29,0-.74-.04-1.36-.14-.62-.09-1.27-.16-1.94-.2-.67-.04-1.29-.11-1.86-.2-.57-.09-.96-.14-1.15-.14-.29-.09-1-.25-2.15-.48-1.15-.23-2.37-.48-3.66-.75-1.29-.27-2.51-.5-3.66-.68-1.15-.18-1.86-.27-2.15-.27h-.57c0,.18-.05,.54-.14,1.09-.1,.54-.05,.91,.14,1.09,0,.09,.02,.75,.07,1.97,.05,1.22,.09,2.56,.14,4.01,.05,1.45,.17,3.4,.36,5.84,.57,.09,1.58,.18,3.01,.27,1.43,.09,2.94,.18,4.52,.27,1.58,.09,3.06,.18,4.44,.27,1.38,.09,2.37,.18,2.94,.27,.19,0,.69,.09,1.51,.27,.81,.18,1.31,.27,1.51,.27,.09,.18,.36,.43,.79,.75,.43,.32,.64,.57,.64,.75v2.17c0,.18-.1,.43-.29,.75-.19,.32-.29,.57-.29,.75-.19,.36-.48,.82-.86,1.36-.29,.36-.53,.63-.72,.82-.19,.36-.57,.82-1.15,1.36-.57,.54-.96,.91-1.15,1.09-.38,.18-.98,.43-1.79,.75-.81,.32-1.32,.48-1.51,.48-.1,.09-.24,.14-.43,.14-.19,.09-.48,.14-.86,.14-.29,0-.62-.04-1-.14-.38-.09-.67-.14-.86-.14s-.81-.09-1.86-.27c-1.05-.18-1.72-.27-2.01-.27h-3.87v18.89c.29,0,1.1-.09,2.44-.27,1.34-.18,2.15-.27,2.44-.27,.38,0,1.12-.04,2.22-.14,1.1-.09,2.27-.16,3.51-.2,1.24-.04,2.41-.11,3.51-.2,1.1-.09,1.89-.14,2.37-.14-.19-.27-.53-.86-1-1.77-.48-.9-.72-1.54-.72-1.9,0-.18-.1-.75-.29-1.7-.19-.95-.29-1.61-.29-1.97v-.95c0-.18,.09-.54,.29-1.09,.19-.54,.29-.86,.29-.95s.09-.41,.29-.95c.09-.27,.24-.5,.43-.68,.09-.18,.38-.48,.86-.88,.48-.41,.95-.84,1.43-1.29s.95-.88,1.43-1.29c.48-.41,.86-.7,1.15-.88,.19-.09,.45-.2,.79-.34,.33-.14,.6-.29,.79-.48h3.01c.09,.27,.19,.5,.29,.68,.09,.27,.29,.54,.57,.82,0,.18,.09,.7,.29,1.56,.19,.86,.29,1.34,.29,1.43,.19,.36,.6,1.09,1.22,2.17,.62,1.09,1.03,1.81,1.22,2.17,.09,.27,.43,.77,1,1.49,.57,.73,.95,1.22,1.15,1.49,.09,.18,.38,.48,.86,.88,.48,.41,.95,.84,1.43,1.29,.48,.45,.95,.88,1.43,1.29,.48,.41,.86,.7,1.15,.88,.19,.18,.81,.66,1.86,1.43,1.05,.77,1.72,1.29,2.01,1.56,.19,.18,.57,.45,1.15,.82,.57,.36,.91,.63,1,.82,.29,.09,.88,.34,1.79,.75,.91,.41,1.89,.84,2.94,1.29,1.05,.45,2.03,.91,2.94,1.36,.91,.45,1.51,.77,1.79,.95,.19,.09,.5,.32,.93,.68,.43,.36,.65,.59,.65,.68v2.85c0,.18-.12,.48-.36,.88-.24,.41-.41,.61-.5,.61-.19,.27-.5,.63-.93,1.09-.43,.45-.89,.91-1.36,1.36s-.93,.91-1.36,1.36c-.43,.45-.74,.72-.93,.82-.19,0-.48,.11-.86,.34-.38,.23-.67,.34-.86,.34h-3.87c-.19,0-.53-.07-1-.2-.48-.14-1.03-.3-1.65-.48-.62-.18-1.2-.36-1.72-.54-.53-.18-.84-.32-.93-.41-.77-.18-1.79-.43-3.08-.75-1.29-.32-2.61-.61-3.94-.88-1.34-.27-2.51-.52-3.51-.75-1-.22-1.6-.34-1.79-.34s-.43-.04-.72-.14c-.57-.18-.91-.27-1-.27s-.34,.07-.72,.2c-.38,.14-.62,.2-.72,.2,0,.18-.05,.59-.14,1.22-.1,.64-.17,1.29-.21,1.97-.05,.68-.12,1.34-.22,1.97-.1,.63-.14,1.04-.14,1.22,0,.27-.12,.91-.36,1.9-.24,1-.45,1.58-.64,1.77,0,.18-.12,.45-.36,.82-.24,.36-.36,.63-.36,.82,0-.18-.02-.52-.07-1.02-.05-.5-.12-1.02-.22-1.56-.1-.54-.17-1.07-.22-1.56-.05-.5-.07-.88-.07-1.16-.1-.18-.19-.61-.29-1.29-.1-.68-.19-1.43-.29-2.24-.1-.82-.17-1.58-.22-2.31-.05-.72-.07-1.22-.07-1.49l-.72-.68c-.19,0-.41,.07-.64,.2-.24,.14-.46,.2-.64,.2v21.61l-1,3.67c-.19-.09-.38-.41-.57-.95-.19-.54-.29-.91-.29-1.09,0-.27-.05-.7-.14-1.29-.1-.59-.17-1.22-.22-1.9-.05-.68-.12-1.36-.22-2.04-.1-.68-.14-1.16-.14-1.43-.1-.64-.19-1.79-.29-3.47-.1-1.68-.17-3.47-.22-5.37-.05-1.9-.12-3.69-.22-5.37-.1-1.68-.19-2.88-.29-3.6h-15.49Z"/></g><g><path class="cls-2" d="M353.98,114.54c.09-.18,.19-.68,.29-1.49,.09-.82,.17-1.7,.22-2.65,.05-.95,.12-1.88,.22-2.79,.09-.91,.19-1.54,.29-1.9,0-.09,.05-.48,.14-1.16,.09-.68,.17-1.41,.21-2.17,.05-.77,.12-1.47,.22-2.11,.09-.63,.14-1.04,.14-1.22v-3.67c-.29,0-.79,.07-1.51,.2-.72,.14-1.48,.3-2.29,.48-.81,.18-1.6,.34-2.37,.48-.77,.14-1.29,.2-1.58,.2-.57,.18-1.43,.34-2.58,.48-1.15,.14-1.82,.2-2.01,.2-.48,.09-1.24,.18-2.29,.27-1.05,.09-2.2,.16-3.44,.2-1.24,.05-2.42,.11-3.51,.2-1.1,.09-1.89,.18-2.37,.27h-5.59c-.1-.18-.34-.45-.72-.82-.38-.36-.62-.63-.72-.82v-.82c.09-.18,.22-.54,.36-1.09,.14-.54,.21-.91,.21-1.09,.19-.18,.6-.63,1.22-1.36,.62-.72,1.08-1.18,1.36-1.36,.09-.09,.29-.29,.57-.61,.29-.32,.6-.63,.93-.95,.33-.32,.79-.79,1.36-1.43,0-.27,.05-.59,.14-.95,.19-.72,.29-1.18,.29-1.36,0-.27-.07-.79-.22-1.56-.14-.77-.21-1.24-.21-1.43s-.07-.72-.22-1.63c-.14-.91-.31-1.58-.5-2.04,0-.18-.1-.54-.29-1.09-.19-.54-.38-.86-.57-.95,0-.36-.21-1.04-.64-2.04-.43-1-.65-1.54-.65-1.63-.29-.54-.5-1.36-.64-2.45-.14-1.09-.31-1.72-.5-1.9,0-.09-.1-.72-.29-1.9-.19-1.18-.43-2.6-.72-4.28-.29-1.68-.6-3.51-.93-5.5-.34-1.99-.67-3.85-1-5.57-.34-1.72-.64-3.17-.93-4.35-.29-1.18-.48-1.86-.57-2.04-.19-.18-.41-.63-.65-1.36-.24-.72-.45-1.49-.64-2.31-.19-.82-.38-1.58-.57-2.31-.19-.72-.29-1.13-.29-1.22-.29-.09-.91-.63-1.86-1.63-.95-1-1.62-1.68-2.01-2.04-.09,0-.31-.09-.64-.27-.33-.18-.69-.38-1.08-.61-.38-.23-.72-.45-1-.68-.29-.23-.43-.38-.43-.48v-3.67c.1-.18,.19-.41,.29-.68,.19-.54,.29-.86,.29-.95,.19-.09,.5-.34,.93-.75,.43-.41,.88-.86,1.36-1.36,.48-.5,.96-.93,1.43-1.29,.48-.36,.81-.63,1-.82,.19-.18,.48-.34,.86-.48,.38-.14,.67-.2,.86-.2h.72c.19,0,.41-.02,.65-.07,.24-.04,.45-.07,.64-.07,.09,0,.38,.02,.86,.07,.48,.05,.81,.07,1,.07,.09,0,.36,.07,.79,.2s.91,.27,1.43,.41c.52,.14,1.03,.27,1.51,.41,.48,.14,.76,.2,.86,.2,.09,.09,.41,.2,.93,.34,.52,.14,1.08,.25,1.65,.34,.57,.09,1.12,.18,1.65,.27,.52,.09,.88,.14,1.08,.14,.57,0,1.94,.07,4.09,.2s4.42,.27,6.81,.41c2.39,.14,4.66,.29,6.81,.48,2.15,.18,3.51,.27,4.09,.27,.09,0,.41,.05,.93,.14,.52,.09,1.12,.16,1.79,.2,.67,.05,1.31,.12,1.94,.2,.62,.09,1.08,.14,1.36,.14s1.05,.09,2.29,.27c1.24,.18,2.1,.27,2.58,.27,.38,.18,1.05,.36,2.01,.54,.95,.18,1.58,.36,1.86,.54,.38,0,.91,.09,1.58,.27,.67,.18,1.1,.27,1.29,.27s.62,.12,1.29,.34c.67,.23,1.1,.39,1.29,.48,.29,0,.91,.2,1.86,.61,.95,.41,1.62,.61,2.01,.61,0,.18,.24,.36,.72,.54,.48,.18,.81,.36,1,.54,.09,.09,.43,.32,1,.68,.57,.36,.95,.59,1.15,.68,.29,.18,.67,.48,1.15,.88,.48,.41,.95,.84,1.43,1.29,.48,.45,.91,.88,1.29,1.29,.38,.41,.57,.7,.57,.88,.09,.18,.36,1.04,.79,2.58,.43,1.54,.91,3.22,1.43,5.03,.52,1.81,.98,3.51,1.36,5.1,.38,1.59,.57,2.43,.57,2.51-.19,2.45-.38,4.67-.57,6.66-.19,1.72-.34,3.33-.43,4.83-.1,1.49-.14,2.33-.14,2.51,0,.27-.07,.59-.21,.95-.14,.36-.31,.73-.5,1.09l-.57,1.36c0,.18-.1,.57-.29,1.15-.19,.59-.29,1.02-.29,1.29-.19,.18-.53,.63-1,1.36-.48,.73-.72,1.18-.72,1.36-.19,.27-.57,.82-1.15,1.63s-.91,1.27-1,1.36c-.29,.18-.72,.52-1.29,1.02-.57,.5-1.15,1.02-1.72,1.56-.57,.54-1.12,1.07-1.65,1.56-.53,.5-.84,.88-.93,1.16-.19,0-.65,.27-1.36,.82-.72,.54-1.36,.95-1.94,1.22-.1,.18-.43,.45-1,.82-.57,.36-.96,.64-1.15,.82-.48,.18-1.2,.54-2.15,1.09-.96,.54-1.53,.86-1.72,.95-.19,.09-.5,.25-.93,.48-.43,.23-.93,.45-1.51,.68-.57,.23-1.1,.45-1.58,.68-.48,.23-.77,.39-.86,.48l-.72,.54c0,.36-.1,1.13-.29,2.31-.19,1.18-.29,1.9-.29,2.17-.19,.18-.36,.57-.5,1.16-.14,.59-.26,.97-.36,1.16l-.72-.68c-.1-.09-.22-.36-.36-.82-.14-.45-.26-.95-.36-1.49-.1-.54-.17-1.02-.21-1.43-.05-.41-.07-.7-.07-.88h-1.29c-.38,0-.74,.11-1.08,.34-.34,.23-.5,.43-.5,.61v2.72c-.1,.45-.26,1.56-.5,3.33-.24,1.77-.45,3.71-.64,5.84-.19,2.13-.41,4.21-.65,6.25-.24,2.04-.41,3.56-.5,4.55-.1,.36-.19,.82-.29,1.36-.1,.54-.19,1.09-.29,1.63-.1,.63-.19,1.31-.29,2.04h-.72c-.1-.54-.19-1.09-.29-1.63-.1-.45-.22-.91-.36-1.36-.14-.45-.26-.86-.36-1.22v-3.67Zm-16.2-76.92c.09,.09,.22,.88,.36,2.38,.14,1.49,.33,3.35,.57,5.57,.24,2.22,.5,4.62,.79,7.2,.29,2.58,.52,4.98,.72,7.2,.19,2.22,.36,4.1,.5,5.64,.14,1.54,.26,2.36,.36,2.45,0,.18,.09,.54,.29,1.09,.19,.54,.29,.91,.29,1.09,.19,.45,.36,1.04,.5,1.77,.14,.73,.21,1.18,.21,1.36,.09,.45,.22,1.29,.36,2.51,.14,1.22,.26,2.54,.36,3.94,.09,1.41,.17,2.74,.22,4.01,.05,1.27,.07,2.13,.07,2.58h2.15c.29,0,.76-.04,1.43-.14,.67-.09,1.36-.16,2.08-.2,.72-.04,1.43-.11,2.15-.2,.72-.09,1.22-.14,1.51-.14,.19,0,.76-.09,1.72-.27,.95-.18,1.67-.36,2.15-.54,.29,0,.81-.09,1.58-.27,.76-.18,1.24-.27,1.43-.27,.38-.09,.93-.25,1.65-.48,.72-.23,1.46-.45,2.22-.68,.76-.22,1.43-.45,2.01-.68,.57-.22,.95-.38,1.15-.48,.19,0,.55-.14,1.08-.41,.52-.27,1.1-.59,1.72-.95,.62-.36,1.24-.68,1.86-.95,.62-.27,1.08-.5,1.36-.68,.38-.18,.88-.43,1.51-.75,.62-.32,.93-.56,.93-.75,.48-.27,1.08-.82,1.79-1.63s1.17-1.22,1.36-1.22v-2.04c-.1-.09-.14-.45-.14-1.09s.05-1.29,.14-1.97c.09-.68,.14-1.29,.14-1.83s-.05-.82-.14-.82c0-.09-.1-.66-.29-1.7-.19-1.04-.43-2.35-.72-3.94-.29-1.58-.57-3.26-.86-5.03-.29-1.77-.57-3.44-.86-5.03-.29-1.58-.55-2.9-.79-3.94-.24-1.04-.36-1.61-.36-1.7-.1,0-.34-.14-.72-.41-.38-.27-.77-.59-1.15-.95-.38-.36-.77-.68-1.15-.95-.38-.27-.62-.41-.72-.41,0-.09-.05,.61-.14,2.11-.1,1.5-.19,3.38-.29,5.64-.1,2.27-.22,4.73-.36,7.41-.14,2.67-.26,5.14-.36,7.41-.1,2.27-.24,4.94-.43,8.02-.1-.09-.22-.95-.36-2.58-.14-1.63-.29-3.67-.43-6.12-.14-2.45-.29-5.07-.43-7.88-.14-2.81-.29-5.44-.43-7.88-.14-2.45-.29-4.46-.43-6.05-.14-1.58-.26-2.38-.36-2.38-.19-.09-.57-.2-1.15-.34-.57-.14-.96-.29-1.15-.48-.48,0-1.1-.09-1.86-.27-.77-.18-1.24-.27-1.43-.27h-2.15c-.19,0-.36,.16-.5,.48-.14,.32-.31,.61-.5,.88,0,.09-.02,.84-.07,2.24-.05,1.41-.1,3.15-.14,5.23-.05,2.09-.1,4.33-.14,6.73-.05,2.4-.1,4.64-.14,6.73-.05,2.09-.1,3.83-.14,5.23-.05,1.41-.07,2.15-.07,2.24l-.57,1.22-1.29-.54v-29.9l-.72-.68c-.19-.18-.41-.34-.65-.48-.24-.14-.45-.29-.64-.48-.1,0-.43-.09-1-.27-.57-.18-.96-.27-1.15-.27-.29,0-.79-.04-1.51-.14-.72-.09-1.48-.16-2.29-.2-.81-.04-1.6-.11-2.37-.2-.77-.09-1.29-.14-1.58-.14s-.69-.02-1.22-.07c-.53-.04-1.1-.07-1.72-.07h-2.8l.14,.82Z"/><path class="cls-2" d="M389.54,17.64c0-.09,.02-.2,.07-.34,.05-.14,.07-.25,.07-.34s.05-.18,.14-.27c.09-.36,.45-.86,1.08-1.5,.62-.63,.98-1.04,1.08-1.22,.09,0,.36-.11,.79-.34,.43-.22,.91-.5,1.43-.82,.52-.32,1.03-.61,1.51-.88,.48-.27,.86-.45,1.15-.54,.19-.09,.48-.14,.86-.14h.86l.86,.27c.29,.09,.67,.14,1.15,.14,.38,.18,.72,.32,1,.41,.19,.09,.43,.18,.72,.27,0,.45,.05,.86,.14,1.22,.19,.91,.33,1.5,.43,1.77,0,.18,.02,.59,.07,1.22,.05,.63,.09,1.31,.14,2.04,.05,.73,.12,1.45,.21,2.17,.09,.73,.14,1.27,.14,1.63v3.33c0,1.41,.02,2.79,.07,4.15,.05,1.36,.09,2.58,.14,3.67,.05,1.09,.12,1.72,.21,1.9-.1,.36-.19,.68-.29,.95-.19,.54-.34,.95-.43,1.22-.1,.18-.14,.39-.14,.61s-.05,.43-.14,.61c-.1,.27-.19,.5-.29,.68-.29,.18-.57,.57-.86,1.15-.29,.59-.53,.88-.72,.88-.19,.09-.6,.32-1.22,.68-.62,.36-1.29,.73-2.01,1.09-.72,.36-1.41,.7-2.08,1.02-.67,.32-1.15,.52-1.43,.61,0,.18-.31,.27-.93,.27s-1.08,.09-1.36,.27l-.29-.14h-.43c-.1-.18-.34-.43-.72-.75-.38-.32-.53-.56-.43-.75,.09-.09,.12-.54,.07-1.36-.05-.82-.07-1.27-.07-1.36-.1-.63-.17-1.61-.22-2.92-.05-1.31-.07-2.67-.07-4.08v-6.18c0-.18-.05-.72-.14-1.63-.1-.9-.19-1.88-.29-2.92-.1-1.04-.14-2.02-.14-2.92v-1.63c0-.18,.05-.36,.14-.54,0-.18,.02-.32,.07-.41,.05-.09,.07-.18,.07-.27Zm7.31,95v-12.5c-.38-.18-.93-.45-1.65-.82-.72-.36-1.27-.63-1.65-.82-.1-.27-.19-.5-.29-.68-.19-.36-.29-.59-.29-.68,0-.18-.12-.77-.36-1.77-.24-1-.36-1.63-.36-1.9-.1-.27-.22-.72-.36-1.36-.14-.63-.26-1.29-.36-1.97-.1-.68-.17-1.36-.22-2.04-.05-.68-.07-1.16-.07-1.43-.1-1.09-.21-2.6-.36-4.55-.14-1.95-.29-3.94-.43-5.98-.14-2.04-.29-3.87-.43-5.5s-.26-2.58-.36-2.85v-11.01c.19-.36,.45-.93,.79-1.7,.33-.77,.6-1.24,.79-1.43,.19-.18,.69-.66,1.51-1.43,.81-.77,1.36-1.24,1.65-1.43,.19-.27,.6-.56,1.22-.88,.62-.32,1.03-.48,1.22-.48,.09,0,.43-.07,1-.2,.57-.14,.95-.2,1.15-.2,.09,0,.43,.09,1,.27,.29,.09,.52,.14,.72,.14l.57,1.36c.09,.54,.19,1.56,.29,3.06,.09,1.49,.17,3.06,.22,4.69,.05,1.63,.12,3.17,.21,4.62,.09,1.45,.14,2.45,.14,2.99s.07,1.59,.21,3.13c.14,1.54,.31,3.22,.5,5.03,.19,1.81,.38,3.53,.57,5.16,.19,1.63,.33,2.81,.43,3.53,0,.18,.05,.54,.14,1.09,.09,.54,.17,1.11,.21,1.7,.05,.59,.12,1.11,.22,1.56,.09,.45,.14,.73,.14,.82v2.99c0,.18-.12,.57-.36,1.16-.24,.59-.36,.97-.36,1.15-.19,.09-.53,.45-1,1.09-.29,.36-.53,.68-.72,.95-.19,.54-.48,1.09-.86,1.63,0,.73-.05,2.06-.14,4.01-.1,1.95-.21,4.01-.36,6.18-.14,2.17-.29,4.21-.43,6.12-.14,1.9-.26,3.26-.36,4.08,0,.18-.12,.84-.36,1.97-.24,1.13-.45,2.01-.64,2.65,0,.36-.12,1.02-.36,1.97-.24,.95-.36,1.52-.36,1.7s-.1,.54-.29,1.09c-.19,.54-.38,.86-.57,.95v-14.68l-.57-.54Z"/><path class="cls-2" d="M425.67,93.89c-.19,.18-.38,.32-.57,.41-.19,.09-.36,.18-.5,.27-.14,.09-.31,.14-.5,.14-.29,.18-.62,.41-1,.68-.77,.54-1.2,.86-1.29,.95-.57,.18-1.15,.41-1.72,.68l-1.15,.54c-.19,0-.41,.05-.65,.14-.24,.09-.45,.14-.65,.14s-.41-.04-.64-.14c-.24-.09-.45-.14-.65-.14l-.29-.27-.29-.27v-2.31c.09-.72,.19-1.29,.29-1.7,.09-.41,.17-.82,.21-1.22,.05-.41,.07-.66,.07-.75,.19-.63,.38-1.49,.57-2.58,.19-1.09,.29-1.72,.29-1.9v-21.2c0-.09-.1-.2-.29-.34-.19-.14-.38-.29-.57-.48h-.57c-.1,.09-.36,.18-.79,.27-.43,.09-.86,.16-1.29,.2-.43,.05-1.03,.16-1.79,.34h-3.87c-.19-.09-.34-.18-.43-.27-.19-.18-.29-.36-.29-.54l-.29-.27c-.1-.09-.14-.32-.14-.68,0-.27,.05-.5,.14-.68l.29-.54c0-.18,.05-.41,.14-.68,.29-.45,.48-.72,.57-.82,.09-.18,.33-.54,.72-1.09,.38-.54,.62-.91,.72-1.09,0-.18,.24-.43,.72-.75,.48-.32,.81-.56,1-.75,.19,0,.67-.32,1.43-.95,.76-.63,1.24-1.04,1.43-1.22,.29,0,.52-.09,.72-.27,.09-.09,.19-.23,.29-.41v-1.36c-.1-.18-.21-.95-.36-2.31-.14-1.36-.31-2.85-.5-4.49-.19-1.63-.36-3.15-.5-4.55-.14-1.4-.26-2.24-.36-2.51l-1.43-2.72c-.19-.27-.48-.7-.86-1.29-.38-.59-.67-.88-.86-.88-.19-.36-.67-.93-1.43-1.7-.77-.77-1.24-1.24-1.43-1.43-.19,0-.62-.2-1.29-.61-.67-.41-1.1-.66-1.29-.75l-.57-.68v-2.99c0-.18,.21-.66,.64-1.43,.43-.77,.69-1.24,.79-1.43,.19-.36,.69-.93,1.51-1.7,.81-.77,1.31-1.24,1.51-1.43,.38-.09,.98-.32,1.79-.68,.81-.36,1.31-.59,1.51-.68h2.15c.09,0,.43,.11,1,.34,.57,.23,1.17,.48,1.79,.75,.62,.27,1.19,.5,1.72,.68,.52,.18,.88,.27,1.08,.27,.48,.27,1.19,.61,2.15,1.02,.95,.41,1.53,.61,1.72,.61,.48,.18,1.17,.41,2.08,.68,.91,.27,1.86,.57,2.87,.88,1,.32,1.91,.61,2.72,.88,.81,.27,1.31,.45,1.51,.54,.19,0,.67,.09,1.43,.27,.76,.18,1.65,.41,2.65,.68,1,.27,2.01,.52,3.01,.75,1,.23,1.79,.34,2.37,.34,.19,0,.76,.11,1.72,.34,.95,.23,1.67,.34,2.15,.34,.19,.09,.52,.2,1,.34,.48,.14,.95,.25,1.43,.34,.48,.09,.93,.16,1.36,.2,.43,.05,.69,.07,.79,.07,.67,0,1.77,.07,3.3,.2,1.53,.14,3.15,.3,4.88,.48,1.72,.18,3.34,.34,4.87,.48,1.53,.14,2.63,.25,3.3,.34l.29,.27,.29,.27v3.13l-.57,1.22c-.19,.27-.48,.63-.86,1.09-.38,.45-.77,.91-1.15,1.36-.38,.45-.77,.91-1.15,1.36-.38,.45-.62,.73-.72,.82l-1.58,28.95-1.29,.68v-28.13l-.57,.27c-.1,.09-.19,.14-.29,.14s-.14,.05-.14,.14c-.1,.09-.19,.75-.29,1.97-.1,1.22-.17,2.54-.21,3.94-.05,1.41-.17,3.24-.36,5.5,0,.18-.19,.36-.57,.54l-.57,.27v-12.78c-.38-.09-1.08-.18-2.08-.27-1-.09-2.06-.16-3.15-.2-1.1-.04-2.15-.11-3.15-.2-1-.09-1.7-.14-2.08-.14-.29,0-.74-.04-1.36-.14-.62-.09-1.27-.16-1.94-.2-.67-.04-1.29-.11-1.86-.2-.57-.09-.96-.14-1.15-.14-.29-.09-1-.25-2.15-.48-1.15-.23-2.37-.48-3.66-.75-1.29-.27-2.51-.5-3.66-.68-1.15-.18-1.86-.27-2.15-.27h-.57c0,.18-.05,.54-.14,1.09-.1,.54-.05,.91,.14,1.09,0,.09,.02,.75,.07,1.97,.05,1.22,.09,2.56,.14,4.01,.05,1.45,.17,3.4,.36,5.84,.57,.09,1.58,.18,3.01,.27,1.43,.09,2.94,.18,4.52,.27,1.58,.09,3.06,.18,4.44,.27,1.38,.09,2.37,.18,2.94,.27,.19,0,.69,.09,1.51,.27,.81,.18,1.31,.27,1.51,.27,.09,.18,.36,.43,.79,.75,.43,.32,.64,.57,.64,.75v2.17c0,.18-.1,.43-.29,.75-.19,.32-.29,.57-.29,.75-.19,.36-.48,.82-.86,1.36-.29,.36-.53,.63-.72,.82-.19,.36-.57,.82-1.15,1.36-.57,.54-.96,.91-1.15,1.09-.38,.18-.98,.43-1.79,.75-.81,.32-1.31,.48-1.51,.48-.1,.09-.24,.14-.43,.14-.19,.09-.48,.14-.86,.14-.29,0-.62-.04-1-.14-.38-.09-.67-.14-.86-.14s-.81-.09-1.86-.27c-1.05-.18-1.72-.27-2.01-.27h-3.87v18.89c.29,0,1.1-.09,2.44-.27,1.34-.18,2.15-.27,2.44-.27,.38,0,1.12-.04,2.22-.14,1.1-.09,2.27-.16,3.51-.2,1.24-.04,2.41-.11,3.51-.2,1.1-.09,1.89-.14,2.37-.14-.19-.27-.53-.86-1-1.77-.48-.9-.72-1.54-.72-1.9,0-.18-.1-.75-.29-1.7-.19-.95-.29-1.61-.29-1.97v-.95c0-.18,.09-.54,.29-1.09,.19-.54,.29-.86,.29-.95s.09-.41,.29-.95c.09-.27,.24-.5,.43-.68,.09-.18,.38-.48,.86-.88,.48-.41,.95-.84,1.43-1.29,.48-.45,.95-.88,1.43-1.29,.48-.41,.86-.7,1.15-.88,.19-.09,.45-.2,.79-.34,.33-.14,.6-.29,.79-.48h3.01c.09,.27,.19,.5,.29,.68,.09,.27,.29,.54,.57,.82,0,.18,.09,.7,.29,1.56,.19,.86,.29,1.34,.29,1.43,.19,.36,.6,1.09,1.22,2.17,.62,1.09,1.03,1.81,1.22,2.17,.09,.27,.43,.77,1,1.49,.57,.73,.95,1.22,1.15,1.49,.09,.18,.38,.48,.86,.88,.48,.41,.95,.84,1.43,1.29,.48,.45,.95,.88,1.43,1.29,.48,.41,.86,.7,1.15,.88,.19,.18,.81,.66,1.86,1.43,1.05,.77,1.72,1.29,2.01,1.56,.19,.18,.57,.45,1.15,.82,.57,.36,.91,.63,1,.82,.29,.09,.88,.34,1.79,.75,.91,.41,1.89,.84,2.94,1.29,1.05,.45,2.03,.91,2.94,1.36,.91,.45,1.51,.77,1.79,.95,.19,.09,.5,.32,.93,.68,.43,.36,.65,.59,.65,.68v2.85c0,.18-.12,.48-.36,.88-.24,.41-.41,.61-.5,.61-.19,.27-.5,.63-.93,1.09-.43,.45-.89,.91-1.36,1.36s-.93,.91-1.36,1.36c-.43,.45-.74,.72-.93,.82-.19,0-.48,.11-.86,.34-.38,.23-.67,.34-.86,.34h-3.87c-.19,0-.53-.07-1-.2-.48-.14-1.03-.3-1.65-.48-.62-.18-1.2-.36-1.72-.54-.53-.18-.84-.32-.93-.41-.77-.18-1.79-.43-3.08-.75-1.29-.32-2.61-.61-3.94-.88-1.34-.27-2.51-.52-3.51-.75-1-.22-1.6-.34-1.79-.34s-.43-.04-.72-.14c-.57-.18-.91-.27-1-.27s-.34,.07-.72,.2c-.38,.14-.62,.2-.72,.2,0,.18-.05,.59-.14,1.22-.1,.64-.17,1.29-.21,1.97-.05,.68-.12,1.34-.22,1.97-.1,.63-.14,1.04-.14,1.22,0,.27-.12,.91-.36,1.9-.24,1-.45,1.58-.64,1.77,0,.18-.12,.45-.36,.82-.24,.36-.36,.63-.36,.82,0-.18-.02-.52-.07-1.02-.05-.5-.12-1.02-.21-1.56-.1-.54-.17-1.07-.22-1.56-.05-.5-.07-.88-.07-1.16-.1-.18-.19-.61-.29-1.29-.1-.68-.19-1.43-.29-2.24-.1-.82-.17-1.58-.22-2.31-.05-.72-.07-1.22-.07-1.49l-.72-.68c-.19,0-.41,.07-.64,.2-.24,.14-.46,.2-.65,.2v21.61l-1,3.67c-.19-.09-.38-.41-.57-.95-.19-.54-.29-.91-.29-1.09,0-.27-.05-.7-.14-1.29-.1-.59-.17-1.22-.21-1.9-.05-.68-.12-1.36-.22-2.04-.1-.68-.14-1.16-.14-1.43-.1-.64-.19-1.79-.29-3.47-.1-1.68-.17-3.47-.21-5.37-.05-1.9-.12-3.69-.22-5.37-.1-1.68-.19-2.88-.29-3.6h-15.49Z"/></g></g></svg>